<svg version="1.1" id="Layer_1" xmlns="http://www.w3.org/2000/svg" xmlns:xlink="http://www.w3.org/1999/xlink" x="0px" y="0px"
	 width="100%" viewBox="0 0 64 64" enable-background="new 0 0 64 64" xml:space="preserve">
<path fill="#000001" opacity="1.000000" stroke="none" 
	d="
M65.000000,39.000000 
	C65.000000,47.588493 65.000000,56.176987 65.000000,65.000000 
	C57.647480,65.000000 50.292477,65.000000 42.165070,64.685013 
	C44.966576,62.656391 48.540485,60.942768 52.468937,59.059143 
	C51.446743,58.108452 50.760262,57.469986 50.058033,56.530228 
	C50.057663,55.827164 50.073040,55.425388 50.291168,54.865993 
	C50.670792,54.418102 50.847660,54.127831 51.281094,53.894325 
	C51.711979,53.968430 51.886295,53.985771 52.053108,54.383118 
	C53.358917,54.888744 55.431160,55.599110 55.859650,55.042984 
	C58.243732,51.948708 60.458549,48.662434 62.207638,45.178921 
	C62.716076,44.166309 61.502670,42.289150 61.086422,40.603584 
	C61.094288,40.398865 61.000000,40.000122 61.337959,39.885162 
	C62.783947,39.513470 63.891972,39.256733 65.000000,39.000000 
z"/>
<path fill="#000000" opacity="1.000000" stroke="none" 
	d="
M24.000000,65.000000 
	C16.408718,65.000000 8.817438,65.000000 1.000000,65.000000 
	C1.000000,57.980801 1.000000,50.959183 1.257251,43.158302 
	C2.287563,43.988144 3.060625,45.597252 4.003110,47.559006 
	C4.462752,47.629284 5.712829,47.820408 6.882291,48.353970 
	C6.552035,49.099201 6.002186,49.601002 6.097503,49.890045 
	C7.686978,54.710041 11.912310,57.083153 15.723036,59.737938 
	C16.021151,59.945629 17.839733,57.970821 19.250210,56.941727 
	C20.356133,56.990192 21.163504,57.107296 21.604326,57.369423 
	C19.236319,61.087948 22.925678,62.561489 24.000000,65.000000 
z"/>
<path fill="#000001" opacity="1.000000" stroke="none" 
	d="
M43.000000,1.000000 
	C50.259567,1.000000 57.519135,1.000000 65.000000,1.000000 
	C65.000000,8.019269 65.000000,15.040852 64.697952,22.834221 
	C62.599876,21.467382 60.803837,19.328756 58.717285,17.016438 
	C59.692307,9.209458 52.146816,8.847899 49.021160,4.317523 
	C47.730122,5.902794 46.931725,6.883143 46.016953,8.144690 
	C45.606762,8.956586 45.312946,9.487283 44.683014,10.029085 
	C43.899292,10.024972 43.451687,10.009754 43.002689,9.746398 
	C43.001293,9.498260 42.972782,9.002798 43.077118,8.755748 
	C43.148483,7.712706 43.115517,6.916714 43.467911,6.061872 
	C43.860256,4.987049 43.975674,3.955930 43.836624,2.960352 
	C43.741764,2.281200 43.291405,1.651700 43.000000,1.000000 
z"/>
<path fill="#000000" opacity="1.000000" stroke="none" 
	d="
M1.000000,23.000000 
	C1.000000,15.740432 1.000000,8.480865 1.000000,1.000000 
	C8.019269,1.000000 15.040852,1.000000 22.833858,1.316764 
	C20.514097,3.993028 14.350017,3.627439 15.673759,10.069051 
	C14.149261,8.566070 13.240321,7.063735 11.142552,9.186295 
	C7.290390,13.083980 3.836271,17.059401 3.512655,22.986210 
	C2.397848,23.004505 1.698924,23.002253 1.000000,23.000000 
z"/>
<path fill="#F0D200" opacity="1.000000" stroke="none" 
	d="
M16.008930,10.199404 
	C14.350017,3.627439 20.514097,3.993028 23.302643,1.316764 
	C28.354929,1.000000 33.709858,1.000000 39.614147,1.300946 
	C40.442337,1.401261 40.721169,1.200630 41.000000,1.000000 
	C41.444447,1.000000 41.888889,1.000000 42.666668,1.000000 
	C43.291405,1.651700 43.741764,2.281200 43.836624,2.960352 
	C43.975674,3.955930 43.860256,4.987049 43.070633,5.979544 
	C34.987759,2.560071 27.888906,4.038859 20.816441,6.787872 
	C17.908678,7.918097 17.619017,9.705149 19.029156,12.343974 
	C18.259687,12.680757 17.687038,12.793236 17.036469,12.617434 
	C16.643349,11.835332 16.328148,11.341512 16.014555,10.685604 
	C16.016163,10.523516 16.008930,10.199404 16.008930,10.199404 
z"/>
<path fill="#F2D300" opacity="1.000000" stroke="none" 
	d="
M24.467939,65.000000 
	C22.925678,62.561489 19.236319,61.087948 21.513474,57.752663 
	C21.985428,58.584091 22.031240,59.569717 22.400637,59.711346 
	C27.483765,61.660206 32.547104,63.288860 38.073116,60.958931 
	C41.962070,59.319229 46.065895,58.189152 50.073780,56.831524 
	C50.760262,57.469986 51.446743,58.108452 52.468937,59.059143 
	C48.540485,60.942768 44.966576,62.656391 41.696335,64.685013 
	C36.311958,65.000000 30.623919,65.000000 24.467939,65.000000 
z"/>
<path fill="#EDD000" opacity="1.000000" stroke="none" 
	d="
M1.000000,23.468403 
	C1.698924,23.002253 2.397848,23.004505 3.775543,23.100931 
	C4.961903,23.461374 5.469493,23.727644 5.864393,24.362667 
	C5.189316,26.394072 3.927751,28.175898 4.187268,29.698458 
	C5.232793,35.832451 6.748141,41.886368 7.808294,47.983292 
	C7.338733,48.001663 7.150819,48.006599 6.962906,48.011536 
	C5.712829,47.820408 4.462752,47.629284 4.003110,47.559006 
	C3.060625,45.597252 2.287563,43.988144 1.257251,42.689522 
	C1.000000,36.645603 1.000000,30.291204 1.000000,23.468403 
z"/>
<path fill="#F5D700" opacity="1.000000" stroke="none" 
	d="
M59.007805,17.190132 
	C60.803837,19.328756 62.599876,21.467382 64.697952,23.303003 
	C65.000000,28.022093 65.000000,33.044186 65.000000,38.533138 
	C63.891972,39.256733 62.783947,39.513470 61.327354,39.550247 
	C60.941280,38.885529 60.903774,38.440773 61.088924,37.635532 
	C63.142910,31.169573 61.794674,25.489981 58.997864,19.652575 
	C59.000900,18.597237 59.004353,17.893684 59.007805,17.190132 
z"/>
<path fill="#000001" opacity="1.000000" stroke="none" 
	d="
M40.750000,1.000000 
	C40.721169,1.200630 40.442337,1.401261 40.081753,1.300946 
	C40.000000,1.000000 40.500000,1.000000 40.750000,1.000000 
z"/>
<path fill="#4D4201" opacity="1.000000" stroke="none" 
	d="
M50.058033,56.530228 
	C46.065895,58.189152 41.962070,59.319229 38.073116,60.958931 
	C32.547104,63.288860 27.483765,61.660206 22.400637,59.711346 
	C22.031240,59.569717 21.985428,58.584091 21.880022,57.607635 
	C21.163504,57.107296 20.356133,56.990192 19.006170,56.934021 
	C18.463579,56.994953 18.006531,56.823029 18.006472,56.452393 
	C18.021437,55.337379 18.036461,54.593002 18.350847,54.007458 
	C23.197065,56.025200 21.161900,50.697399 23.437134,49.801765 
	C23.699501,49.466732 23.846672,49.269360 24.229898,49.267742 
	C22.189342,55.910797 23.486469,58.321117 30.415163,57.808048 
	C36.660229,57.345592 42.788780,55.309715 49.198883,54.092667 
	C49.648834,54.486244 49.868626,54.754929 50.088417,55.023617 
	C50.073040,55.425388 50.057663,55.827164 50.058033,56.530228 
z"/>
<path fill="#1F1B00" opacity="1.000000" stroke="none" 
	d="
M50.291168,54.865993 
	C49.868626,54.754929 49.648834,54.486244 49.031643,53.794220 
	C47.707687,52.378620 46.781128,51.386364 45.854572,50.394104 
	C46.383415,50.531021 46.912262,50.667938 47.441109,50.804855 
	C49.777725,47.610741 52.536617,44.638966 54.360546,41.174904 
	C57.849922,34.547791 55.881138,27.762018 54.347145,21.071705 
	C55.775780,22.114876 57.558556,23.083967 57.716152,24.269157 
	C58.311817,28.748796 58.379902,33.298584 58.404049,38.099972 
	C56.638039,41.816662 55.138779,45.267067 53.578190,48.689507 
	C52.783875,50.431473 51.879276,52.123154 51.024529,53.837563 
	C50.847660,54.127831 50.670792,54.418102 50.291168,54.865993 
z"/>
<path fill="#564A01" opacity="1.000000" stroke="none" 
	d="
M51.281094,53.894325 
	C51.879276,52.123154 52.783875,50.431473 53.578190,48.689507 
	C55.138779,45.267067 56.638039,41.816662 58.775738,38.154190 
	C59.881294,37.952374 60.373783,37.974194 60.866272,37.996014 
	C60.903774,38.440773 60.941280,38.885529 60.989395,39.665207 
	C61.000000,40.000122 61.094288,40.398865 60.746063,40.778889 
	C59.070351,46.382545 57.226757,51.271168 52.060616,54.003117 
	C51.886295,53.985771 51.711979,53.968430 51.281094,53.894325 
z"/>
<path fill="#F0D100" opacity="1.000000" stroke="none" 
	d="
M52.053108,54.383118 
	C57.226757,51.271168 59.070351,46.382545 60.738197,40.983604 
	C61.502670,42.289150 62.716076,44.166309 62.207638,45.178921 
	C60.458549,48.662434 58.243732,51.948708 55.859650,55.042984 
	C55.431160,55.599110 53.358917,54.888744 52.053108,54.383118 
z"/>
<path fill="#F4D600" opacity="1.000000" stroke="none" 
	d="
M18.006531,56.823029 
	C18.006531,56.823029 18.463579,56.994953 18.707619,57.002655 
	C17.839733,57.970821 16.021151,59.945629 15.723036,59.737938 
	C11.912310,57.083153 7.686978,54.710041 6.097503,49.890045 
	C6.002186,49.601002 6.552035,49.099201 6.882291,48.353970 
	C7.150819,48.006599 7.338733,48.001663 8.121065,48.110603 
	C11.812498,51.090668 14.909514,53.956848 18.006531,56.823029 
z"/>
<path fill="#544801" opacity="1.000000" stroke="none" 
	d="
M61.088924,37.635532 
	C60.373783,37.974194 59.881294,37.952374 59.017117,37.876335 
	C58.379902,33.298584 58.311817,28.748796 57.716152,24.269157 
	C57.558556,23.083967 55.775780,22.114876 54.142807,20.934044 
	C53.284878,20.604410 53.110443,20.331623 53.279552,19.774387 
	C53.927406,16.160345 52.724743,14.058554 49.022030,13.973732 
	C49.007183,13.989688 49.031776,13.964341 48.895775,13.657024 
	C47.501266,12.227171 46.242764,11.104635 44.992432,9.991091 
	C45.000603,10.000081 45.019131,10.017981 45.019131,10.017981 
	C45.312946,9.487283 45.606762,8.956586 46.384827,8.178869 
	C50.610390,10.467994 55.298073,11.971941 56.345757,17.356688 
	C56.543461,18.372808 58.079685,19.128498 58.998272,20.004360 
	C61.794674,25.489981 63.142910,31.169573 61.088924,37.635532 
z"/>
<path fill="#574B01" opacity="1.000000" stroke="none" 
	d="
M19.225971,12.119671 
	C17.619017,9.705149 17.908678,7.918097 20.816441,6.787872 
	C27.888906,4.038859 34.987759,2.560071 42.685272,6.038393 
	C43.115517,6.916714 43.148483,7.712706 42.691334,8.760969 
	C39.210361,7.986361 36.409401,5.227206 32.677063,8.028957 
	C31.920519,8.090060 31.488420,8.126980 30.624352,8.104826 
	C26.231558,7.850229 22.166763,7.397048 19.941216,12.145273 
	C19.705091,12.203522 19.225971,12.119671 19.225971,12.119671 
z"/>
<path fill="#EBCE00" opacity="1.000000" stroke="none" 
	d="
M58.997864,19.652575 
	C58.079685,19.128498 56.543461,18.372808 56.345757,17.356688 
	C55.298073,11.971941 50.610390,10.467994 46.501205,7.897671 
	C46.931725,6.883143 47.730122,5.902794 49.021160,4.317523 
	C52.146816,8.847899 59.692307,9.209458 58.717285,17.016438 
	C59.004353,17.893684 59.000900,18.597237 58.997864,19.652575 
z"/>
<path fill="#1F1B00" opacity="1.000000" stroke="none" 
	d="
M33.001507,8.004776 
	C36.409401,5.227206 39.210361,7.986361 42.586998,9.008018 
	C42.972782,9.002798 43.001293,9.498260 42.852631,9.984415 
	C42.190510,10.663469 41.677052,10.856369 40.812130,10.897850 
	C37.974281,9.832547 35.487896,8.918661 33.001507,8.004776 
z"/>
<path fill="#544801" opacity="1.000000" stroke="none" 
	d="
M41.163589,11.049269 
	C41.677052,10.856369 42.190510,10.663469 42.854027,10.232552 
	C43.451687,10.009754 43.899292,10.024972 44.683014,10.029085 
	C45.019131,10.017981 45.000603,10.000081 44.974586,10.307273 
	C44.593880,11.373074 44.239185,12.131683 43.676025,12.960163 
	C43.467560,13.030034 43.057823,13.189669 42.799957,13.047068 
	C42.067089,12.561807 41.592079,12.219146 41.130390,11.669776 
	C41.143707,11.463067 41.163589,11.049270 41.163589,11.049269 
z"/>
<path fill="#E6C800" opacity="1.000000" stroke="none" 
	d="
M5.977083,23.993912 
	C5.469493,23.727644 4.961903,23.461374 4.191426,23.080383 
	C3.836271,17.059401 7.290390,13.083980 11.142552,9.186295 
	C13.240321,7.063735 14.149261,8.566070 15.673759,10.069051 
	C16.008930,10.199404 16.016163,10.523516 15.668602,10.761455 
	C11.821309,14.567413 6.040292,16.636324 7.215871,23.316689 
	C7.242000,23.465164 6.409211,23.764791 5.977083,23.993912 
z"/>
<path fill="#060603" opacity="1.000000" stroke="none" 
	d="
M40.812130,10.897851 
	C41.163589,11.049270 41.143707,11.463067 41.095333,12.001268 
	C41.344376,13.189242 41.641792,13.839015 41.939209,14.488788 
	C42.312080,14.055748 42.684952,13.622708 43.057823,13.189669 
	C43.057823,13.189669 43.467560,13.030034 44.052071,13.029007 
	C46.101643,13.340100 47.566711,13.652221 49.031776,13.964341 
	C49.031776,13.964341 49.007183,13.989688 49.005325,14.349892 
	C49.016060,15.461064 49.028656,16.212034 48.979111,17.024164 
	C48.916973,17.085325 48.793171,17.208122 48.337677,17.207680 
	C39.580410,17.425930 31.278637,17.644625 22.909479,17.577351 
	C22.535637,17.044765 22.229179,16.798149 21.922720,16.551535 
	C21.684027,17.164286 21.445332,17.777037 21.011097,18.659168 
	C19.592113,20.814146 18.368670,22.699741 16.991068,24.822927 
	C20.446520,23.827465 23.323784,22.998569 26.201048,22.169676 
	C26.702063,22.711124 27.203079,23.252573 27.704094,23.794022 
	C25.734056,29.270512 24.324812,35.040924 21.648500,40.147243 
	C18.480608,46.191486 18.012135,45.977478 23.290771,49.916183 
	C21.161900,50.697399 23.197065,56.025200 18.178484,53.725872 
	C14.751431,49.144554 10.989563,45.353443 9.010159,40.789299 
	C4.998621,31.539421 8.986603,19.235952 17.114388,12.905715 
	C17.687038,12.793236 18.259687,12.680757 19.029156,12.343974 
	C19.225971,12.119671 19.705091,12.203522 20.324636,12.117382 
	C24.314896,10.742127 27.685608,9.453014 31.056320,8.163900 
	C31.488420,8.126980 31.920519,8.090060 32.677063,8.028957 
	C35.487896,8.918661 37.974281,9.832547 40.812130,10.897851 
z"/>
<path fill="#514601" opacity="1.000000" stroke="none" 
	d="
M17.036469,12.617434 
	C8.986603,19.235952 4.998621,31.539421 9.010159,40.789299 
	C10.989563,45.353443 14.751431,49.144554 17.879122,53.567039 
	C18.036461,54.593002 18.021437,55.337379 18.006470,56.452393 
	C14.909514,53.956848 11.812498,51.090668 8.402712,48.097176 
	C6.748141,41.886368 5.232793,35.832451 4.187268,29.698458 
	C3.927751,28.175898 5.189316,26.394072 5.864393,24.362667 
	C6.409211,23.764791 7.242000,23.465164 7.215871,23.316689 
	C6.040292,16.636324 11.821309,14.567413 15.666994,10.923543 
	C16.328148,11.341512 16.643349,11.835332 17.036469,12.617434 
z"/>
<path fill="#060603" opacity="1.000000" stroke="none" 
	d="
M53.023067,20.003170 
	C53.110443,20.331623 53.284878,20.604410 53.750710,20.959190 
	C55.881138,27.762018 57.849922,34.547791 54.360546,41.174904 
	C52.536617,44.638966 49.777725,47.610741 47.441109,50.804855 
	C46.912262,50.667938 46.383415,50.531021 45.854572,50.394104 
	C46.781128,51.386364 47.707687,52.378620 48.801483,53.669327 
	C42.788780,55.309715 36.660229,57.345592 30.415163,57.808048 
	C23.486469,58.321117 22.189342,55.910797 24.262405,48.891651 
	C25.378775,46.245777 27.409512,44.282024 27.815498,42.025902 
	C28.977873,35.566422 29.481152,28.988335 30.207823,22.763271 
	C32.577152,22.763271 34.493587,22.763271 36.629917,22.763271 
	C36.111588,28.885473 35.477856,34.637890 35.179348,40.407646 
	C34.907227,45.667427 37.889465,48.958015 42.166763,48.582661 
	C46.120491,48.235699 48.895653,44.084320 48.450123,40.122959 
	C46.708996,41.023392 44.797493,42.011932 42.885986,43.000473 
	C41.962181,40.732937 40.321690,38.482372 40.267521,36.194248 
	C40.162861,31.773293 40.953007,27.331154 41.378857,22.827650 
	C43.926899,22.710655 46.356079,22.599115 49.060604,22.474936 
	C48.959373,20.481306 48.876270,18.844715 48.793167,17.208122 
	C48.793171,17.208122 48.916973,17.085325 49.297173,17.078060 
	C50.792603,18.048252 51.907837,19.025711 53.023067,20.003170 
z"/>
<path fill="#ECECEC" opacity="1.000000" stroke="none" 
	d="
M48.337677,17.207680 
	C48.876270,18.844715 48.959373,20.481306 49.060604,22.474936 
	C46.356079,22.599115 43.926899,22.710655 41.378857,22.827650 
	C40.953007,27.331154 40.162861,31.773293 40.267521,36.194248 
	C40.321690,38.482372 41.962181,40.732937 42.885986,43.000473 
	C44.797493,42.011932 46.708996,41.023392 48.450123,40.122959 
	C48.895653,44.084320 46.120491,48.235699 42.166763,48.582661 
	C37.889465,48.958015 34.907227,45.667427 35.179348,40.407646 
	C35.477856,34.637890 36.111588,28.885473 36.629917,22.763271 
	C34.493587,22.763271 32.577152,22.763271 30.207823,22.763271 
	C29.481152,28.988335 28.977873,35.566422 27.815498,42.025902 
	C27.409512,44.282024 25.378775,46.245777 24.057514,48.719139 
	C23.846672,49.269360 23.699501,49.466732 23.437134,49.801765 
	C18.012135,45.977478 18.480608,46.191486 21.648500,40.147243 
	C24.324812,35.040924 25.734056,29.270512 27.704094,23.794022 
	C27.203079,23.252573 26.702063,22.711124 26.201048,22.169676 
	C23.323784,22.998569 20.446520,23.827465 16.991068,24.822927 
	C18.368670,22.699741 19.592113,20.814146 21.313124,18.597382 
	C22.199413,18.131916 22.588139,17.997618 22.976862,17.863319 
	C31.278637,17.644625 39.580410,17.425930 48.337677,17.207680 
z"/>
<path fill="#1F1B00" opacity="1.000000" stroke="none" 
	d="
M53.279552,19.774387 
	C51.907837,19.025711 50.792603,18.048252 49.359310,17.016899 
	C49.028656,16.212034 49.016060,15.461064 49.020172,14.333935 
	C52.724743,14.058554 53.927406,16.160345 53.279552,19.774387 
z"/>
<path fill="#1F1B00" opacity="1.000000" stroke="none" 
	d="
M48.895775,13.657024 
	C47.566711,13.652221 46.101643,13.340100 44.260536,12.959137 
	C44.239185,12.131683 44.593880,11.373074 44.966415,10.298283 
	C46.242764,11.104635 47.501266,12.227171 48.895775,13.657024 
z"/>
<path fill="#1F1B00" opacity="1.000000" stroke="none" 
	d="
M30.624352,8.104826 
	C27.685608,9.453014 24.314896,10.742127 20.560760,12.059134 
	C22.166763,7.397048 26.231558,7.850229 30.624352,8.104826 
z"/>
<path fill="#1F1B00" opacity="1.000000" stroke="none" 
	d="
M42.799957,13.047068 
	C42.684952,13.622708 42.312080,14.055748 41.939209,14.488788 
	C41.641792,13.839015 41.344376,13.189242 41.082016,12.207977 
	C41.592079,12.219146 42.067089,12.561807 42.799957,13.047068 
z"/>
<path fill="#1F1B00" opacity="1.000000" stroke="none" 
	d="
M22.909479,17.577351 
	C22.588139,17.997618 22.199413,18.131916 21.508663,18.328001 
	C21.445332,17.777037 21.684027,17.164286 21.922720,16.551535 
	C22.229179,16.798149 22.535637,17.044765 22.909479,17.577351 
z"/>
</svg>